<svg width="18" height="18" viewBox="0 0 18 18" fill="none" xmlns="http://www.w3.org/2000/svg">
<path d="M12.9563 1.93844C13.4262 1.46863 13.661 1.23372 13.9213 1.12139C14.2962 0.959538 14.7213 0.959538 15.0962 1.12139C15.3564 1.23372 15.5914 1.46863 16.0611 1.93844C16.531 2.40826 16.7659 2.64316 16.8782 2.9034C17.0401 3.27832 17.0401 3.70339 16.8782 4.07831C16.7659 4.33855 16.531 4.57345 16.0611 5.04327L12.0439 9.06055C11.0542 10.0503 10.5593 10.5452 9.93944 10.8384C9.31961 11.1316 8.62313 11.2003 7.23019 11.3377L6.59961 11.4L6.66183 10.7694C6.79927 9.37647 6.868 8.67999 7.16122 8.06015C7.45441 7.44031 7.94929 6.94546 8.93905 5.95571L12.9563 1.93844Z" stroke="black" stroke-opacity="0.5" stroke-width="1.2" stroke-linejoin="round"/>
<path d="M4.2 11.3999H2.4C1.6268 11.3999 1 12.0267 1 12.7999C1 13.5731 1.6268 14.1999 2.4 14.1999H9.99999C10.7732 14.1999 11.4 14.8267 11.4 15.5999C11.4 16.3731 10.7732 16.9999 9.99999 16.9999H8.19999" stroke="black" stroke-opacity="0.5" stroke-width="1.2" stroke-linecap="round" stroke-linejoin="round"/>
</svg>
