<svg width="24" height="24" viewBox="0 0 24 24" fill="none" xmlns="http://www.w3.org/2000/svg">
<path d="M8.69152 2.15168C5.80063 1.36313 3.00024 3.74875 3.00024 7C3.00024 10.2513 5.80063 12.6369 8.69152 11.8483C10.9981 11.2192 14.2045 9.58049 16.6246 9.80217C17.501 9.88246 18.1262 10.6464 18.9469 10.8707C20.0561 11.1739 20.4904 9.50002 20.7287 8.75297C21.0907 7.61771 21.0907 6.38229 20.7287 5.24703C20.4904 4.49998 20.0561 2.82606 18.9469 3.12929C18.1262 3.35364 17.501 4.11755 16.6246 4.19783C14.2045 4.41951 10.9981 2.78085 8.69152 2.15168Z" stroke="black" stroke-opacity="0.5" stroke-width="1.5" stroke-linecap="round" stroke-linejoin="round"/>
<path d="M5.50024 11.5C6.87201 12.9095 6.77452 15.2676 6.81904 17.376C6.83754 18.2518 7.50285 19 8.34733 19H9.56764C10.2376 19 10.6399 17.4957 10.8467 17.0224C11.1217 16.3927 11.0043 15.6743 10.6759 15.0727C9.98252 13.8023 9.50024 13 10.0002 11.5" stroke="black" stroke-opacity="0.5" stroke-width="1.5" stroke-linecap="round" stroke-linejoin="round"/>
<path d="M16.5002 4.5L16.8791 6.01942C17.0406 6.66673 17.0406 7.33327 16.8791 7.98058L16.5002 9.5" stroke="black" stroke-opacity="0.5" stroke-width="1.5" stroke-linecap="round" stroke-linejoin="round"/>
<path d="M9.00024 19C9.00024 19.9319 9.00024 20.3978 8.82625 20.7654C8.59426 21.2554 8.1493 21.6448 7.58923 21.8478C7.16918 22 6.06525 22 5.00024 22" stroke="black" stroke-opacity="0.5" stroke-width="1.5" stroke-linecap="round" stroke-linejoin="round"/>
</svg>
