<svg width="32" height="32" viewBox="0 0 32 32" fill="none" xmlns="http://www.w3.org/2000/svg">
<path d="M8 14.3159H11.3684V17.6843H8V14.3159ZM13.0526 14.3159H24V17.6843H13.0526V14.3159ZM8 18.9474H11.3684V22.3159H8V18.9474ZM10.9474 19.3685H8.42105V21.8948H10.9474V19.3685ZM8 9.68429H11.3684V13.0527H8V9.68429ZM10.9474 10.1053H8.42105V12.6317H10.9474V10.1053ZM13.0526 13.0527V9.68429H14.7368V10.1053H13.4737V12.6317H17.2632V13.0527H13.0526ZM24 9.68429V13.0527H19.7895V12.6317L23.5789 12.6317V10.1053L22.3158 10.1054V9.68429H24ZM13.0526 18.9474H17.2632V19.3685H13.4737V21.8948H14.7368V22.3159H13.0526V18.9474ZM24 22.3159H22.3158V21.8948H23.5789V19.3685H19.7895V18.9474H24V22.3159ZM15.1579 20.5264L17.6842 23.0527V18.9474H19.3684V23.0527L21.8947 20.5264V22.8422L18.5263 26.2106L15.1579 22.8422V20.5264ZM15.1579 11.4738V9.15797L18.5263 5.78955L21.8947 9.15797V11.4738L19.3684 8.94745V13.0527H17.6842V8.94745L15.1579 11.4738Z" fill="url(#paint0_linear_607_495)"/>
<defs>
<linearGradient id="paint0_linear_607_495" x1="24" y1="16.0001" x2="8" y2="16.0001" gradientUnits="userSpaceOnUse">
<stop stop-color="#B263E0"/>
<stop offset="1" stop-color="#896ED9"/>
</linearGradient>
</defs>
</svg>
