<svg width="17" height="22" viewBox="0 0 17 22" fill="none" xmlns="http://www.w3.org/2000/svg">
<path d="M8.5 1C5.88 1 3.75 3.13 3.75 5.75C3.75 8.32 5.76 10.4 8.38 10.49C8.46 10.48 8.54 10.48 8.6 10.49C8.62 10.49 8.63 10.49 8.65 10.49C8.66 10.49 8.66 10.49 8.67 10.49C11.23 10.4 13.24 8.32 13.25 5.75C13.25 3.13 11.12 1 8.5 1Z" fill="url(#paint0_linear_143_291)" stroke="url(#paint1_linear_143_291)"/>
<path d="M13.58 13.15C10.79 11.29 6.23996 11.29 3.42996 13.15C2.15996 14 1.45996 15.15 1.45996 16.38C1.45996 17.61 2.15996 18.75 3.41996 19.59C4.81996 20.53 6.65996 21 8.49996 21C10.34 21 12.18 20.53 13.58 19.59C14.84 18.74 15.54 17.6 15.54 16.36C15.53 15.13 14.84 13.99 13.58 13.15Z" fill="url(#paint2_linear_143_291)" stroke="url(#paint3_linear_143_291)" stroke-width="1.5"/>
<defs>
<linearGradient id="paint0_linear_143_291" x1="13.25" y1="5.745" x2="3.75" y2="5.745" gradientUnits="userSpaceOnUse">
<stop stop-color="#B263E0"/>
<stop offset="1" stop-color="#896ED9"/>
</linearGradient>
<linearGradient id="paint1_linear_143_291" x1="13.25" y1="5.745" x2="3.75" y2="5.745" gradientUnits="userSpaceOnUse">
<stop stop-color="#B263E0"/>
<stop offset="1" stop-color="#896ED9"/>
</linearGradient>
<linearGradient id="paint2_linear_143_291" x1="15.54" y1="16.3775" x2="1.45996" y2="16.3775" gradientUnits="userSpaceOnUse">
<stop stop-color="#B263E0"/>
<stop offset="1" stop-color="#896ED9"/>
</linearGradient>
<linearGradient id="paint3_linear_143_291" x1="15.54" y1="16.3775" x2="1.45996" y2="16.3775" gradientUnits="userSpaceOnUse">
<stop stop-color="#B263E0"/>
<stop offset="1" stop-color="#896ED9"/>
</linearGradient>
</defs>
</svg>
