<svg width="20" height="21" viewBox="0 0 20 21" fill="none" xmlns="http://www.w3.org/2000/svg">
<path d="M5.15006 13.2471C4.10208 13.8613 1.35434 15.1156 3.0279 16.6851C3.84542 17.4517 4.75592 18.0001 5.90064 18.0001H12.4327C13.5774 18.0001 14.4879 17.4517 15.3054 16.6851C16.979 15.1156 14.2313 13.8613 13.1833 13.2471C10.7258 11.8066 7.60755 11.8066 5.15006 13.2471Z" stroke="url(#paint0_linear_821_198)" stroke-width="1.5" stroke-linecap="round" stroke-linejoin="round"/>
<path d="M12.5002 6.33333C12.5002 8.17428 11.0077 9.66667 9.16683 9.66667C7.32588 9.66667 5.8335 8.17428 5.8335 6.33333C5.8335 4.49238 7.32588 3 9.16683 3C11.0077 3 12.5002 4.49238 12.5002 6.33333Z" stroke="url(#paint1_linear_821_198)" stroke-width="1.5"/>
<path d="M15 5.1153C15 4.40724 15.5597 3.83325 16.25 3.83325C16.9403 3.83325 17.5 4.40724 17.5 5.1153C17.5 5.37053 17.4273 5.60834 17.3019 5.80812C16.9284 6.40355 16.25 6.97135 16.25 7.6794V7.99992" stroke="url(#paint2_linear_821_198)" stroke-width="1.5" stroke-linecap="round"/>
<path d="M16.25 9.66675H16.259" stroke="url(#paint3_linear_821_198)" stroke-width="1.5" stroke-linecap="round" stroke-linejoin="round"/>
<defs>
<linearGradient id="paint0_linear_821_198" x1="15.8333" y1="15.0834" x2="2.5" y2="15.0834" gradientUnits="userSpaceOnUse">
<stop stop-color="#B263E0"/>
<stop offset="1" stop-color="#896ED9"/>
</linearGradient>
<linearGradient id="paint1_linear_821_198" x1="12.5002" y1="6.33333" x2="5.8335" y2="6.33333" gradientUnits="userSpaceOnUse">
<stop stop-color="#B263E0"/>
<stop offset="1" stop-color="#896ED9"/>
</linearGradient>
<linearGradient id="paint2_linear_821_198" x1="17.5" y1="5.91658" x2="15" y2="5.91658" gradientUnits="userSpaceOnUse">
<stop stop-color="#B263E0"/>
<stop offset="1" stop-color="#896ED9"/>
</linearGradient>
<linearGradient id="paint3_linear_821_198" x1="16.259" y1="10.1667" x2="16.25" y2="10.1667" gradientUnits="userSpaceOnUse">
<stop stop-color="#B263E0"/>
<stop offset="1" stop-color="#896ED9"/>
</linearGradient>
</defs>
</svg>
